. 
 
http://www.torrenting.com          :     Once & For all ;)


               www . Torrenting . Com 

(((((((((((((= Enjoy No RAR releases =))))))))))))))))))))


...................................NFO:....................................

.[img]http://lookpic.com/O/i2/229/ZN1xzhbN.jpeg[/img]


[color=green][size=3]General Info[/size][/color]
ENCODER     : Kobe
Source Video: Bd Disk
Source Audio: Bd Disk
Channel     : 6 channels 
IMDB        : http://www.imdb.com/title/tt1745958/
subs        : no



[color=green][size=3]Video[/size][/color]
ID                                       : 0
Format                                   : MPEG-4 Visual
Format profile                           : Advanced Simple@L5
Format settings, BVOP                    : 2
Format settings, QPel                    : No
Format settings, GMC                     : No warppoints
Format settings, Matrix                  : Default (H.263)
Muxing mode                              : Packed bitstream
Codec ID                                 : XVID
Codec ID/Hint                            : XviD
Duration                                 : 1h 41mn
Bit rate                                 : 1 795 Kbps
Width                                    : 720 pixels
Height                                   : 400 pixels
Display aspect ratio                     : 16:9
Frame rate                               : 23.976 fps
Color space                              : YUV
Chroma subsampling                       : 4:2:0
Bit depth                                : 8 bits
Scan type                                : Progressive
Compression mode                         : Lossy
Bits/(Pixel*Frame)                       : 0.260
Stream size                              : 1.28 GiB (82%)
Writing library                          : XviD 64


[color=green][size=3]Audio[/size][/color]
ID                                       : 1
Format                                   : AC-3
Format/Info                              : Audio Coding 3
Mode extension                           : CM (complete main)
Codec ID                                 : 2000
Duration                                 : 1h 41mn
Bit rate mode                            : Constant
Bit rate                                 : 384 Kbps
Channel(s)                               : 6 channels
Channel positions                        : Front: L C R, Side: L R, LFE
Sampling rate                            : 48.0 KHz
Bit depth                                : 16 bits
Compression mode                         : Lossy
Stream size                              : 279 MiB (18%)
Alignment                                : Aligned on interleaves
Interleave, duration                     : 64 ms (1.53 video frames)
Interleave, preload duration             : 192 ms
Title                                    : F1_T3_Audio - English_new



NOTE: 
Straight up encode from the bd disk Enjoy. 


 

[color=Green][size=3]Greetz[/size][/color]
unevano,Mr.hive :rock: R3dRuM,rfcgazza,Killerhz,cooperman,ANALOG,26K,Inspiral,HOPE,Toffee :rock:, KoDeKinG :P 

[img]http://i1165.photobucket.com/albums/q589/Kodeking1/rise3.png[/img]
[img]http://i1165.photobucket.com/albums/q589/Kodeking1/rise2.png[/img]
[img]http://i1165.photobucket.com/albums/q589/Kodeking1/rise1.png[/img]



[img]http://i1165.photobucket.com/albums/q589/Kodeking1/KodeKing.jpg[/img]